<svg viewBox="0 0 405 623" xmlns="http://www.w3.org/2000/svg" fill-rule="evenodd" clip-rule="evenodd" stroke-linejoin="round" stroke-miterlimit="2"><path fill="none" d="M0 0h404.85v622.99H0z"/><path d="M105.825 65.549h191.234c18.34 0 33.208 14.235 33.208 31.795v435.272c0 17.56-14.867 31.796-33.208 31.796H105.825c-18.34 0-33.208-14.236-33.208-31.796V97.344c0-17.56 14.868-31.796 33.208-31.796z"/><path d="M105.825 65.549h191.234c18.34 0 33.208 14.235 33.208 31.795v435.272c0 17.56-14.867 31.796-33.208 31.796H105.825c-18.34 0-33.208-14.236-33.208-31.796V97.344c0-17.56 14.868-31.796 33.208-31.796z" fill="#213648"/><path d="M225.18 0H32.356C23.352.549 15.05 4.657 7.447 12.324c4.89-4.268 13.61-9.98 25.14-9.98h192.362c11.53 0 20.25 5.712 25.14 9.98C242.486 4.657 234.183.549 225.18 0z" fill="url(#_Linear1)" transform="translate(72.617 64.979)"/><path d="M252.431 462.67V34.983c0-11.476-4.217-15.718-6.733-18.442-2.516-2.723-2.623-4.113.992-2.056 3.615 2.056 10.845 8.047 10.845 20.498V462.67c0 12.451-7.23 18.441-10.845 20.498-3.615 2.056-3.508.667-.992-2.057s6.733-6.966 6.733-18.441z" fill="url(#_Linear2)" transform="translate(72.617 64.979)"/><path d="M8.548 462.67V34.983c0-11.476-4.217-15.718-6.733-18.442-2.516-2.723-2.623-4.113.992-2.056 3.615 2.056 10.845 8.047 10.845 20.498V462.67c0 12.451-7.23 18.441-10.845 20.498-3.615 2.056-3.508.667-.992-2.057s6.733-6.966 6.733-18.441z" fill="url(#_Linear3)" transform="matrix(-1 0 0 1 86.269 64.979)"/><path d="M72.049 166.536h.965" fill="none"/><path d="M178.725 77.423h-74.406c-11.106 0-19.196 7.563-19.196 17.441v422.391c0 12.88 12.502 24.293 26.64 24.293h179.332c13.618 0 26.64-11.5 26.64-24.293V96.006c0-11.84-8.79-18.513-19.196-18.583h-75.586c-.287.047-5.479 2.182-7.673 7.563-2.195 5.382-6.61 9.672-11.445 9.672h-5.615c-2.298 0-8.348-2.23-11.411-9.672-3.063-7.442-7.798-7.516-8.084-7.563z" fill="#fff"/><path fill="url(#_Linear4)" d="M-.074 0h233v465h-233z" transform="translate(85.123 77.423)"/><text font-family="'LucidaGrande-Bold','Lucida Grande',sans-serif" font-weight="600" font-size="32" fill="#fff" transform="translate(159.049 204.98)">12:49</text><g><path d="M310.049 236.98c0-2.76-2.24-5-5-5h-208c-2.76 0-5 2.24-5 5v77c0 2.76 2.24 5 5 5h208c2.76 0 5-2.24 5-5v-77z"/><path d="M310.049 236.98c0-2.76-2.24-5-5-5h-208c-2.76 0-5 2.24-5 5v77c0 2.76 2.24 5 5 5h208c2.76 0 5-2.24 5-5v-77z" fill="#fbfcfe"/><text font-family="'LucidaGrande-Bold','Lucida Grande',sans-serif" font-weight="600" font-size="10" fill="#ba4270" transform="translate(108.049 256.98)">PayAPI</text><text font-family="'LucidaGrande','Lucida Grande',sans-serif" font-weight="500" font-size="10" fill="#36536b" transform="translate(252.099 256.98)">Just Now</text><g><text font-family="'LucidaGrande','Lucida Grande',sans-serif" font-weight="500" font-size="10" fill="#36536b" transform="translate(108.049 271.98)">The payment has been processed. The</text><text font-family="'LucidaGrande','Lucida Grande',sans-serif" font-weight="500" font-size="10" fill="#36536b" transform="translate(108.049 285.98)">total amount deducted from your</text><text font-family="'LucidaGrande','Lucida Grande',sans-serif" font-weight="500" font-size="10" fill="#36536b" transform="translate(108.049 299.98)">account is</text><text font-family="'LucidaGrande-Bold','Lucida Grande',sans-serif" font-weight="600" font-size="10" fill="#36536b" transform="translate(159.669 299.98)">US $104.90</text><text font-family="'LucidaGrande','Lucida Grande',sans-serif" font-weight="500" font-size="10" fill="#36536b" transform="translate(213.904 299.98)">.</text></g></g><defs><linearGradient id="_Linear1" x1="0" y1="0" x2="1" y2="0" gradientUnits="userSpaceOnUse" gradientTransform="matrix(0 12.324 -12.324 0 128.768 0)"><stop offset="0" stop-color="#454545" stop-opacity=".39"/><stop offset=".23" stop-color="#999" stop-opacity=".39"/><stop offset="1" stop-color="#fff" stop-opacity=".39"/></linearGradient><linearGradient id="_Linear2" x1="0" y1="0" x2="1" y2="0" gradientUnits="userSpaceOnUse" gradientTransform="rotate(180 128.768 124.413) scale(9.46068)"><stop offset="0" stop-color="#fff" stop-opacity="0"/><stop offset=".22" stop-color="#bababa" stop-opacity=".75"/><stop offset=".55" stop-color="#fff" stop-opacity="0"/><stop offset="1" stop-color="#fff" stop-opacity="0"/></linearGradient><linearGradient id="_Linear3" x1="0" y1="0" x2="1" y2="0" gradientUnits="userSpaceOnUse" gradientTransform="rotate(180 6.826 124.413) scale(9.47583)"><stop offset="0" stop-color="#fff" stop-opacity="0"/><stop offset=".22" stop-color="#bababa" stop-opacity=".75"/><stop offset=".55" stop-color="#fff" stop-opacity="0"/><stop offset="1" stop-color="#fff" stop-opacity="0"/></linearGradient><linearGradient id="_Linear4" x1="0" y1="0" x2="1" y2="0" gradientUnits="userSpaceOnUse" gradientTransform="matrix(0 461.378 -461.378 0 116.426 0)"><stop offset="0" stop-color="#9cb6cd"/><stop offset=".42" stop-color="#9ab3ca"/><stop offset=".72" stop-color="#557496"/><stop offset="1" stop-color="#475178"/></linearGradient></defs></svg>