<svg viewBox="0 0 632 545" xmlns="http://www.w3.org/2000/svg" fill-rule="evenodd" clip-rule="evenodd"><path fill="none" d="M0 0h631.74v544.69H0z"/><path d="M366.776 22.57H558.01c18.34 0 33.208 14.235 33.208 31.795v435.27c0 17.56-14.867 31.796-33.208 31.796H366.776c-18.34 0-33.208-14.236-33.208-31.796V54.365c0-17.56 14.868-31.796 33.208-31.796v.001z"/><path d="M366.776 22.57H558.01c18.34 0 33.208 14.235 33.208 31.795v435.27c0 17.56-14.867 31.796-33.208 31.796H366.776c-18.34 0-33.208-14.236-33.208-31.796V54.365c0-17.56 14.868-31.796 33.208-31.796v.001z" fill="#213648"/><path d="M225.18 0H32.356C23.352.549 15.05 4.657 7.447 12.324c4.89-4.268 13.61-9.98 25.14-9.98h192.362c11.53 0 20.25 5.712 25.14 9.98C242.486 4.657 234.183.549 225.18 0z" fill="url(#_Linear1)" transform="translate(333.568 22)"/><path d="M252.431 462.67V34.983c0-11.476-4.217-15.718-6.733-18.442-2.516-2.723-2.623-4.113.992-2.056 3.615 2.056 10.845 8.047 10.845 20.498V462.67c0 12.451-7.23 18.441-10.845 20.498-3.615 2.056-3.508.667-.992-2.057s6.733-6.966 6.733-18.441z" fill="url(#_Linear2)" transform="translate(333.568 22)"/><path d="M8.548 462.67V34.983c0-11.476-4.217-15.718-6.733-18.442-2.516-2.723-2.623-4.113.992-2.056 3.615 2.056 10.845 8.047 10.845 20.498V462.67c0 12.451-7.23 18.441-10.845 20.498-3.615 2.056-3.508.667-.992-2.057s6.733-6.966 6.733-18.441z" fill="url(#_Linear3)" transform="matrix(-1 0 0 1 347.22 22)"/><path d="M333 123.556h.965" fill="none"/><path d="M439.676 34.444H365.27c-11.106 0-19.196 7.563-19.196 17.441v422.39c0 12.88 12.502 24.292 26.64 24.292h179.332c13.618 0 26.64-11.5 26.64-24.292V53.027c0-11.84-8.79-18.513-19.196-18.583h-75.586c-.287.047-5.479 2.182-7.673 7.563-2.195 5.382-6.61 9.672-11.445 9.672h-5.615c-2.298 0-8.348-2.23-11.411-9.672-3.063-7.442-7.798-7.516-8.084-7.563z" fill="#36536b"/><path d="M550 169c0-2.76-2.24-5-5-5H379c-2.76 0-5 2.24-5 5v181c0 2.76 2.24 5 5 5h166c2.76 0 5-2.24 5-5V169z"/><path d="M550 169c0-2.76-2.24-5-5-5H379c-2.76 0-5 2.24-5 5v181c0 2.76 2.24 5 5 5h166c2.76 0 5-2.24 5-5V169z" fill="#fbfcfe"/><text font-family="'LucidaGrande','Lucida Grande',sans-serif" font-weight="500" font-size="13" fill="#36536b" transform="translate(406.222 280)">Payment <tspan x="57.476" y="0">o</tspan>f</text><text font-family="'LucidaGrande-Bold','Lucida Grande',sans-serif" font-weight="600" font-size="13" fill="#36536b" transform="translate(476.749 280)">$9204</text><text font-family="'LucidaGrande','Lucida Grande',sans-serif" font-weight="500" font-size="13" fill="#36536b" transform="translate(411.736 298)">is compl<tspan x="53.115" y="0">e</tspan>ted and</text><text font-family="'LucidaGrande','Lucida Grande',sans-serif" font-weight="500" font-size="13" fill="#36536b" transform="translate(392.676 316)">processe<tspan x="55.781" y="0">d</tspan> succes<tspan x="109.854" y="0">s</tspan>fully</text><g transform="translate(433 200)"><circle cx="28" cy="28" r="28" fill="#ba4270" fill-opacity=".25"/><path d="M19 29.696l4.577 4.577L36.85 21" fill="none" stroke="#ba4270" stroke-width="3"/></g><g><path d="M528 355c0-8.279-6.721-15-15-15H412c-8.279 0-15 6.721-15 15s6.721 15 15 15h101c8.279 0 15-6.721 15-15z" fill="#ba4270"/><text font-family="'LucidaGrande-Bold','Lucida Grande',sans-serif" font-weight="600" font-size="11" fill="#fbfcfe" transform="translate(442.726 359)">Dismiss</text></g><g><path d="M63.776 22.57H255.01c18.34 0 33.208 14.235 33.208 31.795v435.27c0 17.56-14.867 31.796-33.208 31.796H63.776c-18.34 0-33.208-14.236-33.208-31.796V54.365c0-17.56 14.868-31.796 33.208-31.796v.001z"/><path d="M63.776 22.57H255.01c18.34 0 33.208 14.235 33.208 31.795v435.27c0 17.56-14.867 31.796-33.208 31.796H63.776c-18.34 0-33.208-14.236-33.208-31.796V54.365c0-17.56 14.868-31.796 33.208-31.796v.001z" fill="#213648"/><path d="M225.18 0H32.356C23.352.549 15.05 4.657 7.447 12.324c4.89-4.268 13.61-9.98 25.14-9.98h192.362c11.53 0 20.25 5.712 25.14 9.98C242.486 4.657 234.183.549 225.18 0z" fill="url(#_Linear4)" transform="translate(30.568 22)"/><path d="M252.431 462.67V34.983c0-11.476-4.217-15.718-6.733-18.442-2.516-2.723-2.623-4.113.992-2.056 3.615 2.056 10.845 8.047 10.845 20.498V462.67c0 12.451-7.23 18.441-10.845 20.498-3.615 2.056-3.508.667-.992-2.057s6.733-6.966 6.733-18.441z" fill="url(#_Linear5)" transform="translate(30.568 22)"/><path d="M8.548 462.67V34.983c0-11.476-4.217-15.718-6.733-18.442-2.516-2.723-2.623-4.113.992-2.056 3.615 2.056 10.845 8.047 10.845 20.498V462.67c0 12.451-7.23 18.441-10.845 20.498-3.615 2.056-3.508.667-.992-2.057s6.733-6.966 6.733-18.441z" fill="url(#_Linear6)" transform="matrix(-1 0 0 1 44.22 22)"/><path d="M30 123.556h.965" fill="none"/><g><path d="M136.676 34.444H62.27c-11.106 0-19.196 7.563-19.196 17.441v422.39c0 12.88 12.502 24.292 26.64 24.292h179.332c13.618 0 26.64-11.5 26.64-24.292V53.027c0-11.84-8.79-18.513-19.196-18.583h-75.586c-.287.047-5.479 2.182-7.673 7.563-2.195 5.382-6.61 9.672-11.445 9.672h-5.615c-2.298 0-8.348-2.23-11.411-9.672-3.063-7.442-7.798-7.516-8.084-7.563z" fill="#edf3f8"/><path d="M262 200c0-2.76-2.24-5-5-5H63c-2.76 0-5 2.24-5 5v30c0 2.76 2.24 5 5 5h194c2.76 0 5-2.24 5-5v-30z"/><path d="M262 200c0-2.76-2.24-5-5-5H63c-2.76 0-5 2.24-5 5v30c0 2.76 2.24 5 5 5h194c2.76 0 5-2.24 5-5v-30z" fill="#fbfcfe"/><text font-family="'LucidaGrande','Lucida Grande',sans-serif" font-weight="500" font-size="10" fill="#36536b" transform="translate(74 215)">Item #001</text><text font-family="'LucidaGrande-Bold','Lucida Grande',sans-serif" font-weight="600" font-size="13" fill="#36536b" transform="translate(220.631 219)">$29</text><path d="M262 248c0-2.76-2.24-5-5-5H63c-2.76 0-5 2.24-5 5v30c0 2.76 2.24 5 5 5h194c2.76 0 5-2.24 5-5v-30z"/><path d="M262 248c0-2.76-2.24-5-5-5H63c-2.76 0-5 2.24-5 5v30c0 2.76 2.24 5 5 5h194c2.76 0 5-2.24 5-5v-30z" fill="#fbfcfe"/><text font-family="'LucidaGrande','Lucida Grande',sans-serif" font-weight="500" font-size="10" fill="#36536b" transform="translate(74 263)">Item #002</text><text font-family="'LucidaGrande-Bold','Lucida Grande',sans-serif" font-weight="600" font-size="13" fill="#36536b" transform="translate(214.836 267)">$105</text><path d="M262 296c0-2.76-2.24-5-5-5H63c-2.76 0-5 2.24-5 5v30c0 2.76 2.24 5 5 5h194c2.76 0 5-2.24 5-5v-30z"/><path d="M262 296c0-2.76-2.24-5-5-5H63c-2.76 0-5 2.24-5 5v30c0 2.76 2.24 5 5 5h194c2.76 0 5-2.24 5-5v-30z" fill="#fbfcfe"/><text font-family="'LucidaGrande','Lucida Grande',sans-serif" font-weight="500" font-size="10" fill="#36536b" transform="translate(74 311)">Item #003</text><text font-family="'LucidaGrande-Bold','Lucida Grande',sans-serif" font-weight="600" font-size="13" fill="#36536b" transform="translate(214.888 315)">$810</text><g><path d="M262 344c0-2.76-2.24-5-5-5H63c-2.76 0-5 2.24-5 5v30c0 2.76 2.24 5 5 5h194c2.76 0 5-2.24 5-5v-30z"/><path d="M262 344c0-2.76-2.24-5-5-5H63c-2.76 0-5 2.24-5 5v30c0 2.76 2.24 5 5 5h194c2.76 0 5-2.24 5-5v-30z" fill="#fbfcfe"/></g><g><text font-family="'LucidaGrande','Lucida Grande',sans-serif" font-weight="500" font-size="10" fill="#36536b" transform="translate(74 359)">Item #004</text><text font-family="'LucidaGrande-Bold','Lucida Grande',sans-serif" font-weight="600" font-size="13" fill="#36536b" transform="translate(206.701 363)">$1044</text></g><g><path d="M262 392c0-2.76-2.24-5-5-5H63c-2.76 0-5 2.24-5 5v30c0 2.76 2.24 5 5 5h194c2.76 0 5-2.24 5-5v-30z"/><path d="M262 392c0-2.76-2.24-5-5-5H63c-2.76 0-5 2.24-5 5v30c0 2.76 2.24 5 5 5h194c2.76 0 5-2.24 5-5v-30z" fill="#fbfcfe"/><g><text font-family="'LucidaGrande','Lucida Grande',sans-serif" font-weight="500" font-size="10" fill="#36536b" transform="translate(74 407)">Item #005</text><text font-family="'LucidaGrande-Bold','Lucida Grande',sans-serif" font-weight="600" font-size="13" fill="#36536b" transform="translate(220.547 411)">$40</text></g></g><g><path d="M262 440c0-2.76-2.24-5-5-5H63c-2.76 0-5 2.24-5 5v30c0 2.76 2.24 5 5 5h194c2.76 0 5-2.24 5-5v-30z"/><path d="M262 440c0-2.76-2.24-5-5-5H63c-2.76 0-5 2.24-5 5v30c0 2.76 2.24 5 5 5h194c2.76 0 5-2.24 5-5v-30z" fill="#fbfcfe"/><g><text font-family="'LucidaGrande','Lucida Grande',sans-serif" font-weight="500" font-size="10" fill="#36536b" transform="translate(74 455)">Item #006</text><text font-family="'LucidaGrande-Bold','Lucida Grande',sans-serif" font-weight="600" font-size="13" fill="#36536b" transform="translate(203.489 459)">$2566</text></g></g><g><path d="M262 488c0-2.76-2.24-5-5-5H63c-2.76 0-5 2.24-5 5v30c0 2.76 2.24 5 5 5h194c2.76 0 5-2.24 5-5v-30z"/><path d="M262 488c0-2.76-2.24-5-5-5H63c-2.76 0-5 2.24-5 5v30c0 2.76 2.24 5 5 5h194c2.76 0 5-2.24 5-5v-30z" fill="#fbfcfe"/><g><text font-family="'LucidaGrande','Lucida Grande',sans-serif" font-weight="500" font-size="10" fill="#36536b" transform="translate(74 503)">Item #001</text><text font-family="'LucidaGrande-Bold','Lucida Grande',sans-serif" font-weight="600" font-size="13" fill="#36536b" transform="translate(206.466 507)">$4199</text></g></g><path fill="#36536b" d="M43.074 34.444h233v114h-233z"/><g><path d="M262 120c0-2.76-2.24-5-5-5H63c-2.76 0-5 2.24-5 5v46c0 2.76 2.24 5 5 5h194c2.76 0 5-2.24 5-5v-46z"/><path d="M262 120c0-2.76-2.24-5-5-5H63c-2.76 0-5 2.24-5 5v46c0 2.76 2.24 5 5 5h194c2.76 0 5-2.24 5-5v-46z" fill="#fbfcfe"/><text font-family="'LucidaGrande','Lucida Grande',sans-serif" font-weight="500" font-size="10" fill="#36536b" transform="translate(74.231 143)">Total payment</text><g><text font-family="'LucidaGrande-Bold','Lucida Grande',sans-serif" font-weight="600" font-size="20" fill="#ba4270" transform="translate(181.339 150)">$920<tspan x="52.65" y="0">4</tspan></text></g></g><g><path d="M148.922 89.432V84.48h.04c.351.512.799.9 1.345 1.162" fill="#fff" fill-rule="nonzero"/><circle cx="12.09" cy="3.158" r="1.895" fill="#fff" transform="rotate(45 -11.493 178.39)"/><circle cx="16.556" cy="7.624" r="1.895" fill="#fff" transform="rotate(45 -7.027 182.855)"/><circle cx="21.022" cy="12.09" r="1.895" fill="#fff" transform="rotate(45 -2.561 187.321)"/><circle cx="7.624" cy="7.624" r="1.895" fill="#fff" transform="rotate(45 -15.96 182.855)"/><circle cx="12.09" cy="12.09" r="1.895" fill="#fff" fill-opacity=".5" transform="rotate(45 -11.493 187.321)"/><circle cx="16.556" cy="16.556" r="1.895" fill="#fff" fill-opacity=".5" transform="rotate(45 -7.027 191.787)"/><circle cx="3.158" cy="12.09" r="1.895" fill="#fff" transform="rotate(45 -20.425 187.321)"/><circle cx="7.624" cy="16.556" r="1.895" fill="#fff" fill-opacity=".5" transform="rotate(45 -15.96 191.787)"/><circle cx="12.09" cy="21.022" r="1.895" fill="#fff" fill-opacity=".25" transform="rotate(45 -11.493 196.253)"/></g></g></g><defs><linearGradient id="_Linear1" x1="0" y1="0" x2="1" y2="0" gradientUnits="userSpaceOnUse" gradientTransform="matrix(0 12.324 -12.324 0 128.768 0)"><stop offset="0" stop-color="#454545" stop-opacity=".39"/><stop offset=".23" stop-color="#999" stop-opacity=".39"/><stop offset="1" stop-color="#fff" stop-opacity=".39"/></linearGradient><linearGradient id="_Linear2" x1="0" y1="0" x2="1" y2="0" gradientUnits="userSpaceOnUse" gradientTransform="rotate(180 128.768 124.413) scale(9.46068)"><stop offset="0" stop-color="#fff" stop-opacity="0"/><stop offset=".22" stop-color="#bababa" stop-opacity=".75"/><stop offset=".55" stop-color="#fff" stop-opacity="0"/><stop offset="1" stop-color="#fff" stop-opacity="0"/></linearGradient><linearGradient id="_Linear3" x1="0" y1="0" x2="1" y2="0" gradientUnits="userSpaceOnUse" gradientTransform="rotate(180 6.826 124.413) scale(9.47583)"><stop offset="0" stop-color="#fff" stop-opacity="0"/><stop offset=".22" stop-color="#bababa" stop-opacity=".75"/><stop offset=".55" stop-color="#fff" stop-opacity="0"/><stop offset="1" stop-color="#fff" stop-opacity="0"/></linearGradient><linearGradient id="_Linear4" x1="0" y1="0" x2="1" y2="0" gradientUnits="userSpaceOnUse" gradientTransform="matrix(0 12.324 -12.324 0 128.768 0)"><stop offset="0" stop-color="#454545" stop-opacity=".39"/><stop offset=".23" stop-color="#999" stop-opacity=".39"/><stop offset="1" stop-color="#fff" stop-opacity=".39"/></linearGradient><linearGradient id="_Linear5" x1="0" y1="0" x2="1" y2="0" gradientUnits="userSpaceOnUse" gradientTransform="rotate(180 128.768 124.413) scale(9.46068)"><stop offset="0" stop-color="#fff" stop-opacity="0"/><stop offset=".22" stop-color="#bababa" stop-opacity=".75"/><stop offset=".55" stop-color="#fff" stop-opacity="0"/><stop offset="1" stop-color="#fff" stop-opacity="0"/></linearGradient><linearGradient id="_Linear6" x1="0" y1="0" x2="1" y2="0" gradientUnits="userSpaceOnUse" gradientTransform="rotate(180 6.826 124.413) scale(9.47583)"><stop offset="0" stop-color="#fff" stop-opacity="0"/><stop offset=".22" stop-color="#bababa" stop-opacity=".75"/><stop offset=".55" stop-color="#fff" stop-opacity="0"/><stop offset="1" stop-color="#fff" stop-opacity="0"/></linearGradient></defs></svg>